HIERARCHY
ROOT Beta:Hips
{
	OFFSET 0.00 0.00 0.00
	CHANNELS 6 Xposition Yposition Zposition Yrotation Xrotation Zrotation
	JOINT Beta:Spine
	{
		OFFSET	0.0000	9.2263	1.5771
		CHANNELS 3 Xrotation Yrotation Zrotation
		JOINT Beta:Spine1
		{
			OFFSET	0.0000	16.2540	-0.1656
			CHANNELS 3 Xrotation Yrotation Zrotation
			JOINT Beta:Spine2
			{
				OFFSET	0.0000	13.6396	-1.2923
				CHANNELS 3 Xrotation Yrotation Zrotation
				JOINT Beta:Neck
				{
					OFFSET	0.0000	13.8774	-4.3542
					CHANNELS 3 Xrotation Yrotation Zrotation
					JOINT Beta:Neck1
					{
						OFFSET	0.0000	4.3400	0.9269
						CHANNELS 3 Xrotation Yrotation Zrotation
						JOINT Beta:Head
						{
							OFFSET	0.0000	4.0266	0.8585
							CHANNELS 3 Xrotation Yrotation Zrotation
							End Site
							{
								OFFSET 0.0000 23.0297 0.1231
							}
						}
					}
				}
				JOINT Beta:LeftShoulder
				{
					OFFSET	6.1442	10.1870	-3.7932
					CHANNELS 3 Zrotation Xrotation Yrotation
					JOINT Beta:LeftArm
					{
						OFFSET	12.3191	-1.1130	-1.7935
						CHANNELS 3 Zrotation Xrotation Yrotation
						JOINT Beta:LeftForeArm
						{
							OFFSET	27.6870	0.0000	0.0000
							CHANNELS 3 Xrotation Zrotation Yrotation
							JOINT Beta:LeftHand
							{
								OFFSET	27.8738	0.0000	0.0000
								CHANNELS 3 Zrotation Yrotation Xrotation
								JOINT Beta:LeftHandThumb1
								{
									OFFSET	2.3785	-1.0029	2.6209
									CHANNELS 3 Zrotation Xrotation Yrotation
									JOINT Beta:LeftHandThumb2
									{
										OFFSET	3.3624	-1.0029	2.8398
										CHANNELS 3 Zrotation Xrotation Yrotation
										JOINT Beta:LeftHandThumb3
										{
											OFFSET	4.5018	-1.3445	2.1783
											CHANNELS 3 Zrotation Xrotation Yrotation
											End Site
											{
												OFFSET 2.6000 -1.0000 1.0000
											}
										}
									}
								}
								JOINT Beta:LeftHandMiddle1
								{
									OFFSET	10.4639	0.6148	0.4298
									CHANNELS 3 Zrotation Xrotation Yrotation
									JOINT Beta:LeftHandMiddle2
									{
										OFFSET	5.7921	0.0000	0.0000
										CHANNELS 3 Zrotation Xrotation Yrotation
										JOINT Beta:LeftHandMiddle3
										{
											OFFSET	3.7132	0.0000	0.0000
											CHANNELS 3 Zrotation Xrotation Yrotation
											End Site
											{
												OFFSET 2.3000 0.0000 0.0000
											}
										}
									}
								}
								JOINT Beta:LeftHandIndex1
								{
									OFFSET	10.3945	0.6148	2.7055
									CHANNELS 3 Zrotation Xrotation Yrotation
									JOINT Beta:LeftHandIndex2
									{
										OFFSET	5.5493	0.0000	0.0000
										CHANNELS 3 Zrotation Xrotation Yrotation
										JOINT Beta:LeftHandIndex3
										{
											OFFSET	3.3911	0.0000	0.0000
											CHANNELS 3 Zrotation Xrotation Yrotation
											End Site
											{
												OFFSET 2.5000 0.0000 0.0000
											}
										}
									}
								}
								JOINT Beta:LeftHandRing1
								{
									OFFSET	10.3252	0.3211	-1.8755
									CHANNELS 3 Zrotation Xrotation Yrotation
									JOINT Beta:LeftHandRing2
									{
										OFFSET	5.4452	0.0000	0.0000
										CHANNELS 3 Zrotation Xrotation Yrotation
										JOINT Beta:LeftHandRing3
										{
											OFFSET	3.7132	0.0000	0.0000
											CHANNELS 3 Zrotation Xrotation Yrotation
											End Site
											{
												OFFSET 2.0000 0.0000 0.0000
											}
										}
									}
								}
								JOINT Beta:LeftHandPinky1
								{
									OFFSET	10.0130	-0.0783	-3.9671
									CHANNELS 3 Zrotation Xrotation Yrotation
									JOINT Beta:LeftHandPinky2
									{
										OFFSET	3.6763	0.0000	0.0000
										CHANNELS 3 Zrotation Xrotation Yrotation
										JOINT Beta:LeftHandPinky3
										{
											OFFSET	2.8113	0.0000	0.0000
											CHANNELS 3 Zrotation Xrotation Yrotation
											End Site
											{
												OFFSET 2.9000 0.0000 0.0000
											}
										}
									}
								}
							}
						}
					}
				}
				JOINT Beta:RightShoulder
				{
					OFFSET	-6.1402	10.1870	-3.7932
					CHANNELS 3 Zrotation Xrotation Yrotation
					JOINT Beta:RightArm
					{
						OFFSET	-12.3231	-1.1130	-1.7935
						CHANNELS 3 Zrotation Xrotation Yrotation
						JOINT Beta:RightForeArm
						{
							OFFSET	-27.6870	0.0000	0.0000
							CHANNELS 3 Xrotation Zrotation Yrotation
							JOINT Beta:RightHand
							{
								OFFSET	-27.8738	0.0000	0.0000
								CHANNELS 3 Zrotation Yrotation Xrotation
								JOINT Beta:RightHandThumb1
								{
									OFFSET	-2.5178	-0.9367	2.5137
									CHANNELS 3 Zrotation Xrotation Yrotation
									JOINT Beta:RightHandThumb2
									{
										OFFSET	-3.2638	-1.0870	2.9669
										CHANNELS 3 Zrotation Xrotation Yrotation
										JOINT Beta:RightHandThumb3
										{
											OFFSET	-4.4165	-1.3703	2.1350
											CHANNELS 3 Zrotation Xrotation Yrotation
											End Site
											{
												OFFSET -2.6000 -1.0000 1.0000
											}
										}
									}
								}
								JOINT Beta:RightHandIndex1
								{
									OFFSET	-10.4665	0.4896	2.7120
									CHANNELS 3 Zrotation Xrotation Yrotation
									JOINT Beta:RightHandIndex2
									{
										OFFSET	-5.3768	0.0000	0.0000
										CHANNELS 3 Zrotation Xrotation Yrotation
										JOINT Beta:RightHandIndex3
										{
											OFFSET	-3.3855	0.0000	0.0000
											CHANNELS 3 Zrotation Xrotation Yrotation
											End Site
											{
												OFFSET -2.6000 0.0000 0.0000
											}
										}
									}
								}
								JOINT Beta:RightHandMiddle1
								{
									OFFSET	-10.7596	0.4896	0.4278
									CHANNELS 3 Zrotation Xrotation Yrotation
									JOINT Beta:RightHandMiddle2
									{
										OFFSET	-5.6168	0.0000	0.0000
										CHANNELS 3 Zrotation Xrotation Yrotation
										JOINT Beta:RightHandMiddle3
										{
											OFFSET	-3.7364	0.0000	0.0000
											CHANNELS 3 Zrotation Xrotation Yrotation
											End Site
											{
												OFFSET -2.3000 0.0000 0.0000
											}
										}
									}
								}
								JOINT Beta:RightHandRing1
								{
									OFFSET	-10.4702	0.3879	-1.9363
									CHANNELS 3 Zrotation Xrotation Yrotation
									JOINT Beta:RightHandRing2
									{
										OFFSET	-5.4013	0.0000	0.0000
										CHANNELS 3 Zrotation Xrotation Yrotation
										JOINT Beta:RightHandRing3
										{
											OFFSET	-3.3916	0.0000	0.0000
											CHANNELS 3 Zrotation Xrotation Yrotation
											End Site
											{
												OFFSET -2.2000 0.0000 0.0000
											}
										}
									}
								}
								JOINT Beta:RightHandPinky1
								{
									OFFSET	-9.9715	-0.1191	-3.9540
									CHANNELS 3 Zrotation Xrotation Yrotation
									JOINT Beta:RightHandPinky2
									{
										OFFSET	-3.6528	0.0000	0.0000
										CHANNELS 3 Zrotation Xrotation Yrotation
										JOINT Beta:RightHandPinky3
										{
											OFFSET	-2.7820	0.0000	0.0000
											CHANNELS 3 Zrotation Xrotation Yrotation
											End Site
											{
												OFFSET -2.9000 0.0000 0.0000
											}
										}
									}
								}
							}
						}
					}
				}
			}
		}
	}
	JOINT Beta:LeftUpLeg
	{
		OFFSET	9.6338	-3.2733	0.0000
		CHANNELS 3 Xrotation Yrotation Zrotation
		JOINT Beta:LeftLeg
		{
			OFFSET	0.0000	-41.7300	-1.7300
			CHANNELS 3 Xrotation Yrotation Zrotation
			JOINT Beta:LeftFoot
			{
				OFFSET	0.0126	-39.1900	-0.8477
				CHANNELS 3 Xrotation Yrotation Zrotation
				JOINT Beta:LeftToeBase
				{
					OFFSET	-0.1833	-12.1931	8.2823
					CHANNELS 3 Xrotation Yrotation Zrotation
					End Site
					{
						OFFSET 0.0000 0.0000 10.1681
					}
				}
			}
		}
	}
	JOINT Beta:RightUpLeg
	{
		OFFSET	-9.6338	-3.2733	0.0000
		CHANNELS 3 Xrotation Yrotation Zrotation
		JOINT Beta:RightLeg
		{
			OFFSET	0.0000	-41.7300	-1.7300
			CHANNELS 3 Xrotation Yrotation Zrotation
			JOINT Beta:RightFoot
			{
				OFFSET	0.0126	-39.1900	-0.8477
				CHANNELS 3 Xrotation Yrotation Zrotation
				JOINT Beta:RightToeBase
				{
					OFFSET	-0.1833	-12.1931	8.2823
					CHANNELS 3 Xrotation Yrotation Zrotation
					End Site
					{
						OFFSET 0.0032 0.0000 10.1681
					}
				}
			}
		}
	}
}
MOTION
Frames: 8
Frame Time: 0.0333333
-10.4642 78.9375 -64.1895 40.6300 5.0035 11.6780 1.7889 1.6646 -0.1058 3.5846 4.5590 -0.2508 3.5846 4.5590 -0.2508 5.8912 -1.7654 2.5879 -0.0000 0.0000 -0.0000 -30.8357 -12.5522 10.6329 7.0184 -0.4514 -2.5265 -60.2590 10.9845 11.3673 2.9408 -1.8317 -124.8076 28.5160 10.8147 28.8214 18.2257 2.8767 -3.5195 -16.2774 6.4529 17.2356 0.0000 -0.0000 0.0000 -42.1637 0.7830 -2.7598 -51.1299 -1.1120 -1.3706 0.0000 -0.0000 0.0000 -36.0934 0.7984 -2.8720 -56.2828 -1.1323 -0.1187 -0.0000 -0.0000 -0.0000 -50.9818 -0.3649 1.3558 -55.1852 1.3380 1.4898 0.0000 -0.0000 -0.0000 -49.7037 -0.8752 4.1462 -67.7583 4.1525 4.5796 -0.0000 0.0000 -0.0000 -5.4002 1.3170 13.1147 0.5079 -47.0585 17.9699 -18.7851 13.2347 28.9595 9.9532 20.6801 -67.5139 0.9854 10.4196 11.8158 45.6873 5.7912 -41.2301 0.0000 -0.0000 0.0000 114.9991 2.0549 -7.2929 100.7364 -4.3148 0.6602 0.0000 0.0000 -0.0000 108.9872 0.0249 0.4922 101.4679 -3.6471 2.1730 -0.0000 0.0000 0.0000 114.0913 -2.1698 5.0415 91.0965 3.4349 -1.1417 -0.0000 0.0000 0.0000 117.3830 1.3171 10.1156 97.2600 8.6707 -4.4867 -0.0000 -0.0000 -0.0000 -61.5698 11.9000 -4.2192 64.9823 -6.1912 -6.7280 -23.0715 0.5149 -2.4197 -2.0184 -0.0000 0.0000 5.5022 -21.1625 -3.1830 49.0190 -10.4760 3.2894 -32.1697 -7.2936 7.9286 -23.4799 -0.0000 -0.0000 
-9.1215 78.4532 -56.2449 46.5334 4.6648 12.5337 1.2082 3.2873 -0.5251 2.4595 8.2179 -1.0985 2.4595 8.2179 -1.0985 4.1100 -2.9822 2.5726 -0.0000 0.0000 -0.0000 -34.1339 -16.6209 10.2560 7.7825 -0.2420 0.6299 -70.5206 20.8316 19.7918 3.0580 -1.6412 -120.6032 25.2821 -1.8610 27.8642 16.5234 5.7460 -2.9208 -22.9096 3.3567 28.7476 -0.0000 0.0000 0.0000 -70.7331 0.7830 -2.7598 -88.8685 -1.2464 -3.2212 -0.0000 0.0000 -0.0000 -65.6270 0.7170 -2.3353 -98.9804 -1.0360 -2.6530 0.0000 0.0000 -0.0000 -78.0165 0.0411 -0.0794 -88.5278 1.4139 3.0893 -0.0000 -0.0000 0.0000 -76.8695 -0.1148 0.0919 -96.7475 3.8436 8.6167 -0.0000 0.0000 -0.0000 -13.1510 0.7921 12.6102 8.7153 -64.5654 28.8789 -12.1943 11.7059 35.2140 11.1969 12.9994 -47.6780 -10.7258 13.9220 21.0627 57.8120 5.0374 -40.1365 0.0000 -0.0000 0.0000 109.9603 2.5690 -7.1139 95.5333 -4.2830 0.2702 0.0000 0.0000 -0.0000 104.3960 -0.0031 0.4136 97.0070 -3.6371 1.8816 0.0000 0.0000 0.0000 109.4858 -2.4885 4.8498 87.6332 3.3802 -0.9615 -0.0000 0.0000 0.0000 112.5248 0.2394 9.4807 97.8449 8.4756 -4.6351 -0.0000 -0.0000 0.0000 -61.6983 12.0850 -13.3301 52.8850 -7.5559 -7.6244 -21.0277 -1.9056 -7.4178 -0.5762 -0.0000 0.0000 15.5364 -20.5033 4.2852 37.3672 -12.6298 4.4855 -23.4355 -10.8336 5.4918 -26.2812 0.0000 -0.0000 
-7.5593 77.7739 -48.0073 48.5704 6.6209 13.6686 0.6498 5.2646 -1.2745 1.4359 12.4303 -2.5356 1.4359 12.4303 -2.5356 1.2804 -4.8956 3.5587 -0.0000 0.0000 -0.0000 -40.6621 -20.6785 5.5401 8.3520 0.2163 5.8676 -73.9937 19.2830 27.1843 3.7096 -1.7596 -117.0031 17.5791 -6.5954 18.1074 15.6449 7.4390 -2.6609 -26.7601 1.4637 35.2894 0.0000 -0.0000 -0.0000 -87.0759 0.7830 -2.7598 -111.3372 -0.7573 -4.2264 -0.0000 -0.0000 -0.0000 -82.5209 0.6703 -2.0283 -123.3875 -0.1756 -3.8491 -0.0000 0.0000 -0.0000 -93.3113 0.2733 -0.9003 -109.7378 0.9869 4.0237 -0.0000 0.0000 0.0000 -92.4610 0.3196 -2.2276 -114.3005 2.6954 10.8080 0.0000 -0.0000 -0.0000 -19.3265 0.8129 11.2844 41.0028 -72.3432 65.9047 -6.3274 9.5038 48.8241 12.5132 16.5093 -27.4898 -16.1722 15.1653 25.3311 63.6177 4.8870 -40.8583 0.0000 0.0000 0.0000 108.2890 2.8463 -7.0342 96.4070 -4.2720 0.2967 -0.0000 -0.0000 -0.0000 103.0189 -0.0214 0.3424 97.9938 -3.6325 1.9042 -0.0000 0.0000 0.0000 108.4710 -2.5724 4.8984 88.7057 3.3914 -0.9921 -0.0000 0.0000 -0.0000 111.4524 -0.1170 9.4694 100.6259 8.3978 -5.0567 0.0000 -0.0000 0.0000 -62.4950 10.5610 -18.2883 42.5530 -13.3419 -8.1282 -20.4352 -5.0781 -11.7025 0.0493 -0.0000 -0.0000 21.4572 -17.8236 8.9460 26.3454 -13.6476 4.3818 -10.5287 -14.8778 3.8892 -28.9736 0.0000 -0.0000 
-6.0876 77.1156 -39.3470 46.1721 9.5047 14.1358 0.2373 7.2263 -2.1514 0.7387 16.4237 -4.0958 0.7387 16.4237 -4.0958 -1.0442 -7.0009 4.9275 -0.0000 0.0000 -0.0000 -46.6584 -25.8494 1.3092 8.2593 0.7217 11.4084 -71.5386 7.7459 33.5239 4.7458 -1.8454 -116.6569 7.4892 1.2705 1.9568 15.9337 7.4092 -2.8693 -26.6726 1.6410 34.6647 0.0000 0.0000 0.0000 -85.5630 0.7830 -2.7598 -109.2413 -0.8192 -4.1417 -0.0000 0.0000 0.0000 -80.9570 0.6746 -2.0567 -121.1290 -0.2758 -3.7550 -0.0000 0.0000 -0.0000 -92.0458 0.2518 -0.8243 -107.7151 1.0422 3.9422 0.0000 -0.0000 0.0000 -90.9284 0.2790 -2.0134 -112.5303 2.8364 10.6036 -0.0000 0.0000 0.0000 -22.2986 1.6522 8.5516 71.4373 -63.6129 109.8913 -5.2619 9.6530 59.7153 18.8940 21.9980 -21.6453 -17.4381 15.5037 26.4372 65.2288 4.6847 -41.5515 -0.0000 -0.0000 0.0000 106.8747 2.8689 -7.0548 98.3733 -4.2978 0.4389 -0.0000 0.0000 -0.0000 101.7896 -0.0252 0.3308 99.9900 -3.6467 2.0307 0.0000 -0.0000 0.0000 107.8626 -2.4980 4.9841 90.4193 3.4211 -1.0762 -0.0000 0.0000 -0.0000 110.9346 -0.0035 9.5927 102.5286 8.3796 -5.3431 -0.0000 0.0000 0.0000 -66.0264 8.9012 -18.0181 42.8585 -17.4929 -7.6123 -19.8348 -9.5394 -9.7412 -0.5095 -0.0000 -0.0000 25.2362 -14.4430 9.7765 17.4039 -12.7185 4.6098 6.4887 -17.5758 3.7027 -28.2931 -0.0000 -0.0000 
-5.0444 76.3481 -30.2332 42.5323 12.0984 13.9102 -0.0119 8.4768 -3.0325 0.3504 18.8199 -5.5610 0.3504 18.8199 -5.5610 -2.0988 -8.5380 6.1240 -0.0000 0.0000 -0.0000 -50.8636 -31.9706 1.0036 7.5424 0.8598 13.8673 -66.7804 -5.9742 38.9938 5.4848 -1.6857 -117.0582 2.7056 11.4984 -12.4870 16.8171 6.5011 -3.3072 -24.5821 2.9194 30.4110 0.0000 -0.0000 -0.0000 -74.9727 0.7830 -2.7598 -94.5671 -1.1604 -3.4931 -0.0000 0.0000 0.0000 -70.0096 0.7049 -2.2557 -105.3141 -0.8631 -2.9969 -0.0000 0.0000 -0.0000 -82.0276 0.1013 -0.2924 -93.5532 1.3445 3.3240 0.0000 -0.0000 0.0000 -80.8553 -0.0021 -0.5110 -101.2353 3.6032 9.2074 -0.0000 0.0000 -0.0000 -20.8721 2.3648 7.0768 65.5887 -44.4798 121.6067 -5.3610 8.4216 62.0058 20.9267 21.6997 -14.3349 -16.7899 15.4049 26.0089 64.6864 4.6013 -41.5903 0.0000 0.0000 -0.0000 107.2526 2.8010 -7.0695 98.8545 -4.3137 0.4968 0.0000 -0.0000 0.0000 101.5982 -0.0215 0.3489 100.5621 -3.6528 2.0884 -0.0000 -0.0000 0.0000 105.6103 -2.4220 4.9899 90.7062 3.4290 -1.1026 -0.0000 0.0000 -0.0000 108.7692 0.1790 9.6035 102.2459 8.3921 -5.3143 0.0000 0.0000 0.0000 -70.4868 7.7699 -15.4435 53.0464 -15.2524 -6.4973 -15.6367 -14.5913 -2.8481 -0.3083 -0.0000 -0.0000 27.5523 -12.7027 9.2605 12.5500 -11.4090 4.0986 22.3691 -16.7923 6.1490 -20.8215 -0.0000 -0.0000 
-4.4505 75.2998 -21.6957 40.9492 13.1028 13.8208 0.2881 8.6526 -3.5827 1.0753 19.1038 -6.7791 1.0753 19.1038 -6.7791 -3.6143 -9.4437 6.2668 -0.0000 0.0000 -0.0000 -51.4155 -36.4005 2.0530 6.3128 0.6561 13.2447 -62.8030 -13.6652 41.1932 5.6104 -1.5342 -113.2129 5.9766 12.6257 -19.6142 18.0627 5.0691 -3.8747 -21.2618 4.8511 24.0006 -0.0000 -0.0000 0.0000 -58.9928 0.7830 -2.7598 -73.3596 -1.3402 -2.4528 0.0000 0.0000 0.0000 -53.4905 0.7505 -2.5559 -81.4353 -1.3065 -1.6255 -0.0000 0.0000 -0.0000 -66.9081 -0.1258 0.5104 -74.8257 1.4962 2.4286 -0.0000 -0.0000 -0.0000 -65.6492 -0.4249 1.7565 -85.1389 4.1939 7.0209 -0.0000 -0.0000 0.0000 -16.1151 1.8392 8.1957 43.4863 -24.3621 115.3812 -4.8966 5.9829 60.3048 19.2041 17.9012 -0.4812 -15.6371 15.1210 25.0958 63.3737 4.6587 -41.1389 0.0000 0.0000 0.0000 108.4084 2.7445 -7.0735 97.8118 -4.2976 0.4252 0.0000 -0.0000 -0.0000 102.9048 -0.0166 0.3658 99.5536 -3.6425 2.0254 -0.0000 -0.0000 -0.0000 107.5815 -2.4452 4.9393 89.4777 3.4084 -1.0465 -0.0000 -0.0000 -0.0000 109.9886 0.1759 9.5438 100.7080 8.4072 -5.0871 -0.0000 0.0000 -0.0000 -72.1413 7.5485 -14.0802 63.9747 -8.6342 -5.0839 -9.1326 -17.3112 4.7376 -0.7436 0.0000 -0.0000 25.9131 -14.3306 7.6997 18.5939 -10.9569 4.1132 26.9006 -12.1911 9.6916 -16.5304 -0.0000 -0.0000 
-4.4352 74.8111 -14.5458 41.9540 12.4847 15.2509 1.2829 7.7869 -4.0639 3.1559 17.2222 -8.0467 3.1559 17.2222 -8.0467 -4.7213 -9.3855 5.9475 -0.0000 0.0000 -0.0000 -51.8860 -37.4924 2.8233 4.1915 0.2624 10.0160 -60.6621 -14.9281 39.3700 5.1995 -1.4586 -102.8826 9.6434 7.0280 -22.7880 19.4345 3.4688 -4.4755 -17.4985 6.9788 16.9023 0.0000 -0.0000 0.0000 -41.3108 0.7830 -2.7598 -50.0036 -1.0895 -1.3190 -0.0000 0.0000 0.0000 -35.2118 0.8009 -2.8880 -55.0085 -1.1061 -0.0459 0.0000 0.0000 0.0000 -50.1746 -0.3770 1.3986 -54.1901 1.3215 1.4442 0.0000 -0.0000 0.0000 -48.8056 -0.8907 4.2661 -67.3038 4.1150 4.5144 0.0000 0.0000 -0.0000 -9.4770 0.3579 11.6682 25.3567 -5.4367 106.3632 -3.2279 3.6023 59.4455 17.3852 16.2588 12.9996 -15.3766 14.9087 24.7815 62.6699 4.8728 -40.3146 0.0000 -0.0000 -0.0000 108.6861 2.7660 -7.0372 95.2096 -4.2674 0.2251 0.0000 -0.0000 0.0000 103.2902 -0.0152 0.3676 96.8108 -3.6298 1.8463 -0.0000 0.0000 -0.0000 108.5019 -2.5710 4.8414 87.6046 3.3754 -0.9473 0.0000 0.0000 -0.0000 111.4151 -0.0614 9.3958 99.2966 8.4053 -4.8621 -0.0000 0.0000 -0.0000 -70.0760 7.6197 -13.8439 70.1168 -6.0561 -4.2523 -11.7656 -17.0942 4.7400 -0.3273 -0.0000 -0.0000 18.9629 -17.2959 3.8532 34.1250 -10.9139 4.8584 19.1863 -8.9851 12.3423 -8.0882 -0.0000 -0.0000 
-4.4889 74.6172 -7.7589 41.5937 12.3598 15.7946 2.0220 6.8786 -4.4744 4.6418 15.1171 -8.9964 4.6418 15.1171 -8.9964 -5.0832 -8.7954 6.1034 -0.0000 0.0000 -0.0000 -51.4797 -36.9215 5.4629 1.8309 0.0043 3.9080 -59.6341 -13.6576 34.9798 4.2823 -1.1131 -87.1247 10.0207 3.6069 -27.7285 20.6869 2.0579 -5.0172 -14.1232 8.8671 10.5928 -0.0000 0.0000 -0.0000 -25.6145 0.7830 -2.7598 -29.2801 -0.5047 -0.4684 0.0000 -0.0000 0.0000 -18.9854 0.8456 -3.1829 -31.5638 -0.3522 1.1527 0.0000 0.0000 0.0000 -35.3170 -0.5999 2.1871 -35.8784 0.8836 0.6713 -0.0000 -0.0000 -0.0000 -33.8347 -1.3016 6.4946 -51.5028 3.4050 2.4039 0.0000 -0.0000 0.0000 -2.9196 0.4707 15.8126 21.2414 8.9172 91.9765 -1.7442 2.2578 62.4829 16.6983 16.5892 18.8225 -15.6070 14.9457 24.9869 62.9175 4.8465 -40.3094 -0.0000 -0.0000 -0.0000 108.6861 2.7660 -7.0372 95.2096 -4.2674 0.2251 0.0000 0.0000 -0.0000 103.2902 -0.0152 0.3676 96.8108 -3.6297 1.8462 0.0000 0.0000 -0.0000 108.5019 -2.5710 4.8414 87.6046 3.3754 -0.9473 -0.0000 0.0000 0.0000 111.4007 -0.0635 9.3954 99.3662 8.4015 -4.8728 0.0000 -0.0000 0.0000 -67.6277 6.5154 -11.3067 74.8393 -7.9713 -3.9805 -19.6905 -17.5474 3.0805 -0.0039 0.0000 -0.0000 9.2143 -19.7350 -0.7284 50.4713 -10.2673 2.9730 6.8110 -9.3478 9.4888 -5.0506 0.0000 -0.0000 
